# xmcd
#
# Track frame offsets: 
#        182
#        13402
#        26087
#        36700
#        46810
#        58682
#        80930
#        95787
#        113320
#        134362
#        147252
#        162632
#        182797
#        202095
#
# Disc length: 2988 seconds
#
# Revision: 2
# Processed by: cddbd v1.5.2PL0 Copyright (c) Steve Scherf et al.
# Submitted via: ExactAudioCopyFreeDBPlugin 1.0
#
DISCID=d60baa0e
DTITLE=Various Artist - Pioneer R&B Classics, Volume 3
DYEAR=1992
DGENRE=R&B
TTITLE0=Dionne Warwick - Walk on By
TTITLE1=The Four Tops - It's the Same Old Song
TTITLE2=Little Anthony and The Imperials - Hurt So Bad
TTITLE3=Lou Rawls - Love is a Hurtin' Thing
TTITLE4=Sly and The Family Stone - Hot Fun in the Summertime
TTITLE5=Ike and Tina Turner - Proud Mary
TTITLE6=Al Green - Let's Stay Together
TTITLE7=Marvin Gaye - What's Going On
TTITLE8=Gladys Knight and The Pips - Midnight Train to Georgia
TTITLE9=Natalie Cole - This Will Be (An Everlasting Love)
TTITLE10=Minnie Riperton - Lovin' You
TTITLE11=Smokey Robinson - Cruisin'
TTITLE12=Peabo Bryson - If Ever You're in My Arms Again
TTITLE13=Luther Vandross - Here and Now
EXTD=
EXTT0=
EXTT1=
EXTT2=
EXTT3=
EXTT4=
EXTT5=
EXTT6=
EXTT7=
EXTT8=
EXTT9=
EXTT10=
EXTT11=
EXTT12=
EXTT13=
PLAYORDER=
